<svg width="335" height="89" viewBox="0 0 335 89" fill="" xmlns="http://www.w3.org/2000/svg">
    <path
        d="M248.028 88.4072C247.056 88.4072 246.217 88.1221 245.51 87.5517C244.803 86.8998 244.45 86.085 244.45 85.1072V6.15169C244.45 5.25539 244.803 4.48132 245.51 3.82946C246.217 3.17761 247.056 2.85168 248.028 2.85168H274.001C274.973 2.85168 275.812 3.17761 276.519 3.82946C277.226 4.48132 277.579 5.25539 277.579 6.15169V31.8184H299.047V6.15169C299.047 5.25539 299.401 4.48132 300.107 3.82946C300.814 3.17761 301.653 2.85168 302.625 2.85168H328.599C329.57 2.85168 330.41 3.17761 331.117 3.82946C331.823 4.48132 332.177 5.25539 332.177 6.15169V85.1072C332.177 86.0035 331.823 86.7776 331.117 87.4295C330.41 88.0813 329.57 88.4072 328.599 88.4072H302.625C301.653 88.4072 300.814 88.0813 300.107 87.4295C299.401 86.7776 299.047 86.0035 299.047 85.1072V58.7072H277.579V85.1072C277.579 86.0035 277.226 86.7776 276.519 87.4295C275.812 88.0813 274.973 88.4072 274.001 88.4072H248.028Z"
        fill="white" />
    <path
        d="M133.798 88.5C125.14 88.5 117.542 87.2778 111.005 84.8333C104.555 82.3889 99.4313 78.7222 95.6325 73.8333C91.922 68.863 89.89 62.7519 89.5367 55.5C89.4483 52.1593 89.4041 48.6148 89.4041 44.8667C89.4041 41.1185 89.4483 37.4926 89.5367 33.9889C89.89 26.8185 91.922 20.7481 95.6325 15.7778C99.343 10.8074 104.467 7.01852 111.005 4.41111C117.542 1.8037 125.14 0.5 133.798 0.5C142.456 0.5 150.053 1.8037 156.591 4.41111C163.128 7.01852 168.252 10.8074 171.963 15.7778C175.762 20.7481 177.794 26.8185 178.059 33.9889C178.235 37.4926 178.324 41.1185 178.324 44.8667C178.324 48.6148 178.235 52.1593 178.059 55.5C177.705 62.7519 175.629 68.863 171.83 73.8333C168.12 78.7222 162.996 82.3889 156.458 84.8333C150.009 87.2778 142.456 88.5 133.798 88.5ZM133.798 64.6667C136.713 64.6667 139.054 63.8926 140.821 62.3444C142.588 60.7148 143.516 58.1889 143.604 54.7667C143.781 51.263 143.869 47.8 143.869 44.3778C143.869 40.9556 143.781 37.5741 143.604 34.2333C143.516 31.9519 143.03 30.0778 142.146 28.6111C141.351 27.1444 140.247 26.0852 138.833 25.4333C137.42 24.7 135.741 24.3333 133.798 24.3333C131.942 24.3333 130.264 24.7 128.762 25.4333C127.348 26.0852 126.2 27.1444 125.317 28.6111C124.521 30.0778 124.08 31.9519 123.991 34.2333C123.903 37.5741 123.859 40.9556 123.859 44.3778C123.859 47.8 123.903 51.263 123.991 54.7667C124.168 58.1889 125.096 60.7148 126.774 62.3444C128.541 63.8926 130.882 64.6667 133.798 64.6667Z"
        fill="white" />
    <path fill-rule="evenodd" clip-rule="evenodd"
          d="M170.424 83.6639C171.318 84.0716 172.249 84.4614 173.217 84.8333C179.578 87.2778 187.661 88.5 197.468 88.5C205.86 88.5 213.37 87.3593 219.996 85.0778C226.622 82.7148 231.834 79.3741 235.633 75.0556C239.52 70.737 241.464 65.6037 241.464 59.6556C241.464 54.3593 240.227 49.9185 237.753 46.3333C235.368 42.7482 231.481 39.8963 226.092 37.7778C220.791 35.5778 213.723 33.9889 204.889 33.0111C200.913 32.5222 197.865 32.0333 195.745 31.5444C193.625 31.0556 192.167 30.4852 191.372 29.8333C190.577 29.1815 190.179 28.4889 190.179 27.7556C190.179 26.6963 190.665 25.8815 191.637 25.3111C192.697 24.6593 194.331 24.3333 196.54 24.3333C198.395 24.3333 199.897 24.6185 201.046 25.1889C202.283 25.6778 203.122 26.1259 203.564 26.5333C204.359 27.1852 205.11 27.6741 205.816 28C206.611 28.3259 207.627 28.4889 208.864 28.4889H235.368C236.075 28.4889 236.693 28.2444 237.223 27.7556C237.842 27.1852 238.151 26.5333 238.151 25.8C238.062 23.1111 237.091 20.3 235.235 17.3667C233.38 14.4333 230.686 11.7037 227.152 9.17778C223.618 6.57037 219.289 4.49259 214.165 2.94444C209.041 1.31481 203.166 0.5 196.54 0.5C188.501 0.5 181.433 1.68148 175.337 4.04444C173.762 4.66414 172.274 5.34829 170.875 6.09688C173.027 7.92121 174.96 9.96546 176.657 12.235C181.278 18.2936 183.626 25.5595 183.935 33.7313C184.116 37.328 184.206 41.0401 184.206 44.8667C184.206 48.2141 184.137 51.4165 183.998 54.4722C186.011 54.8753 188.115 55.2179 190.312 55.5C194.729 55.9889 198.174 56.5185 200.648 57.0889C203.122 57.5778 204.845 58.1481 205.816 58.8C206.876 59.4519 207.407 60.2667 207.407 61.2445C207.407 62.3037 206.479 63.1593 204.624 63.8111C202.857 64.3815 200.471 64.6667 197.468 64.6667C196.054 64.6667 194.729 64.5852 193.492 64.4222C192.344 64.1778 191.284 63.8519 190.312 63.4444C189.428 62.9556 188.545 62.4259 187.661 61.8556C186.778 61.2037 185.939 60.7148 185.143 60.3889C184.734 60.1527 184.205 59.985 183.558 59.8857C182.659 66.4638 180.357 72.3591 176.509 77.3959C174.731 79.7374 172.697 81.8244 170.424 83.6639ZM178.171 53.0626C178.273 50.4484 178.324 47.7164 178.324 44.8667C178.324 41.1185 178.235 37.4926 178.059 33.9889C177.794 26.8185 175.762 20.7481 171.963 15.7778C170.195 13.4091 168.105 11.3088 165.695 9.47674C163.994 10.8277 162.481 12.317 161.158 13.9444C157.801 18.1815 156.122 23.0704 156.122 28.6111C156.122 33.9889 157.491 38.5519 160.23 42.3C163.057 45.9667 167.033 48.8593 172.157 50.9778C174.036 51.755 176.041 52.4499 178.171 53.0626ZM177.63 59.7778C176.791 65.1874 174.858 69.8725 171.83 73.8333C169.877 76.4067 167.533 78.6414 164.796 80.5374C162.443 78.9405 160.479 77.154 158.905 75.1778C155.724 71.1852 154.046 66.9482 153.869 62.4667C153.869 61.7333 154.134 61.1222 154.664 60.6333C155.283 60.063 155.989 59.7778 156.785 59.7778H177.63Z"
          fill="white" />
    <path
        d="M6.40128 88.4072C5.42948 88.4072 4.5902 88.0813 3.88343 87.4295C3.17667 86.7776 2.82329 86.0035 2.82329 85.1072V6.15169C2.82329 5.25539 3.17667 4.48132 3.88343 3.82946C4.5902 3.17761 5.42948 2.85168 6.40128 2.85168H46.5543C54.5937 2.85168 61.573 3.95169 67.4921 6.15169C73.4996 8.27021 78.1377 11.5702 81.4065 16.0517C84.7637 20.4517 86.4422 26.0332 86.4422 32.7961C86.4422 39.5591 84.7637 45.0998 81.4065 49.4184C78.1377 53.6554 73.4996 56.7924 67.4921 58.8295C61.573 60.785 54.5937 61.7628 46.5543 61.7628H37.278V85.1072C37.278 86.0035 36.9246 86.7776 36.2178 87.4295C35.5111 88.0813 34.6718 88.4072 33.7 88.4072H6.40128ZM36.6154 39.1517H45.8917C47.3052 39.1517 48.6746 38.6628 49.9997 37.685C51.3249 36.6258 51.9875 34.9147 51.9875 32.5517C51.9875 31.0035 51.5458 29.4554 50.6623 27.9072C49.8672 26.3591 48.277 25.585 45.8917 25.585H36.6154V39.1517Z"
        fill="white" />
</svg>
