<svg width="80" height="80" viewBox="0 0 80 80" fill="none" xmlns="http://www.w3.org/2000/svg">
<circle cx="40" cy="40" r="40" fill="#E7E7E3"/>
<path d="M23.5005 60.9766L23.5002 60.9766C23.0718 60.9821 22.6475 60.8921 22.2582 60.7131C21.8689 60.534 21.5244 60.2705 21.2498 59.9415L21.2318 59.9566L21.2498 59.9415C20.6452 59.2189 20.401 58.2314 20.5817 57.2317L20.5817 57.2317C21.3718 52.8489 23.8373 49.1671 27.7135 46.582C31.1575 44.287 35.5207 43.0234 40.0005 43.0234C44.4804 43.0234 48.8436 44.2879 52.2875 46.582C56.1638 49.1661 58.6293 52.8479 59.4193 57.2307C59.6001 58.2304 59.3559 59.2179 58.7513 59.9406L58.7513 59.9406C58.4768 60.2697 58.1323 60.5335 57.743 60.7127C57.3537 60.8919 56.9294 60.982 56.5008 60.9766L56.5005 61V60.9766H23.5005ZM40.0005 19.0234C42.8068 19.0234 45.3486 20.1056 47.1683 22.0703C49.0105 24.0593 49.9086 26.7368 49.6962 29.6089C49.2741 35.3288 44.9288 39.9766 40.0005 39.9766C35.0722 39.9766 30.7195 35.3279 30.3039 29.6071C30.0943 26.7086 30.9869 24.0255 32.8177 22.0516C34.6289 20.0992 37.1791 19.0234 40.0005 19.0234Z" fill="#232321" stroke="#232321" stroke-width="0.046875"/>
</svg>
