<svg width="269" height="269" viewBox="0 0 269 269" fill="none" xmlns="http://www.w3.org/2000/svg">
<path d="M226.969 75.6562L211.906 220.527C211.424 224.618 209.458 228.389 206.381 231.126C203.303 233.863 199.328 235.375 195.209 235.375H73.7964C69.6777 235.375 65.7024 233.863 62.6247 231.126C59.5469 228.389 57.5808 224.618 57.0995 220.527L42.0312 75.6562" stroke="#232321" stroke-width="3.5" stroke-linecap="round" stroke-linejoin="round"/>
<path d="M243.781 33.625H25.2188C20.5761 33.625 16.8125 37.3886 16.8125 42.0312V67.25C16.8125 71.8926 20.5761 75.6562 25.2188 75.6562H243.781C248.424 75.6562 252.188 71.8926 252.188 67.25V42.0312C252.188 37.3886 248.424 33.625 243.781 33.625Z" stroke="#232321" stroke-width="3.5" stroke-linecap="round" stroke-linejoin="round"/>
<path d="M163.922 126.094L105.078 184.938M163.922 184.938L105.078 126.094" stroke="#232321" stroke-width="3.5" stroke-linecap="round" stroke-linejoin="round"/>
</svg>
