<svg width="270" height="270" viewBox="0 0 270 270" fill="none" xmlns="http://www.w3.org/2000/svg">
<path d="M267.5 134.75C267.5 61.4609 208.039 2 134.75 2C61.4609 2 2 61.4609 2 134.75C2 208.039 61.4609 267.5 134.75 267.5C208.039 267.5 267.5 208.039 267.5 134.75Z" stroke="#232321" stroke-width="3.5" stroke-miterlimit="10"/>
<path d="M62.8713 112.839L62.8526 112.839L62.8713 112.839C63.0855 91.3762 80.2985 73.9153 101.242 73.9153C115.337 73.9153 125.426 81.2602 131.716 88.0194L131.716 88.0196C132.106 88.432 132.576 88.7605 133.097 88.985C133.618 89.2096 134.18 89.3254 134.747 89.3254C135.315 89.3254 135.876 89.2096 136.398 88.985C136.919 88.7605 137.389 88.432 137.779 88.0196L137.779 88.0194C144.075 81.2602 154.157 73.9153 168.253 73.9153C189.196 73.9153 206.409 91.3762 206.623 112.839C206.817 131.57 200.189 148.87 186.37 165.716C179.886 173.624 168.12 186.269 140.95 204.714C139.123 205.959 136.965 206.628 134.754 206.632C132.539 206.63 130.375 205.962 128.545 204.714C101.374 186.269 89.6081 173.604 83.1242 165.716C69.299 148.87 62.6778 131.57 62.8713 112.839Z" fill="#DA1E28" stroke="#DA1E28" stroke-width="0.046875"/>
</svg>
