<svg width="150" height="150" viewBox="0 0 150 150" fill="none" xmlns="http://www.w3.org/2000/svg">
<path d="M31.25 108.656V50.6252L21.5625 29.3252C21.2334 28.5669 21.2209 27.7606 21.525 26.9065C21.8292 26.0523 22.3625 25.4586 23.125 25.1252C23.8875 24.7919 24.6959 24.7752 25.55 25.0752C26.4042 25.3752 26.9938 25.9002 27.3188 26.6502L38.0313 50.3127H111.969L122.681 26.6565C123.01 25.8981 123.6 25.3669 124.45 25.0627C125.3 24.7586 126.108 24.7815 126.875 25.1315C127.638 25.4606 128.171 26.0523 128.475 26.9065C128.779 27.7606 128.767 28.5669 128.438 29.3252L118.75 50.6252V108.656C118.75 111.448 117.767 113.829 115.8 115.8C113.833 117.767 111.452 118.75 108.656 118.75H41.3438C38.5521 118.75 36.1709 117.767 34.2 115.8C32.2334 113.834 31.25 111.452 31.25 108.656ZM62.5 78.1252H87.5C88.3875 78.1252 89.1313 77.8273 89.7313 77.2315C90.3313 76.6356 90.6292 75.8919 90.625 75.0002C90.6209 74.1086 90.3229 73.3648 89.7313 72.769C89.1313 72.1731 88.3875 71.8752 87.5 71.8752H62.5C61.6125 71.8752 60.8688 72.1731 60.2688 72.769C59.6688 73.3648 59.3709 74.1086 59.375 75.0002C59.3792 75.8919 59.6771 76.6356 60.2688 77.2315C60.8688 77.8273 61.6125 78.1252 62.5 78.1252ZM41.3438 112.5H108.656C109.777 112.5 110.698 112.14 111.419 111.419C112.14 110.698 112.5 109.777 112.5 108.656V56.5627H37.5V108.656C37.5 109.777 37.8604 110.698 38.5813 111.419C39.3021 112.14 40.2229 112.5 41.3438 112.5Z" fill="black"/>
</svg>
