<svg width="150" height="150" viewBox="0 0 150 150" fill="none" xmlns="http://www.w3.org/2000/svg">
<path d="M137.658 74.6875V127.52C137.658 131.306 134.846 134.375 131.375 134.375H18.2829C14.8116 134.375 12 131.306 12 127.52V74.6875L74.829 115.526L137.658 74.6875Z" stroke="black" stroke-width="4" stroke-linejoin="round"/>
<path d="M12 74.0093L43.4145 52.3584M137.658 74.0093L106.243 52.3584" stroke="black" stroke-width="4" stroke-linecap="round" stroke-linejoin="round"/>
<path d="M106.243 15H43.4144V91.6984C43.4144 92.7452 43.6758 93.7754 44.1751 94.6954C44.6743 95.6154 45.3955 96.3962 46.2731 96.9666L71.4047 113.302C72.4239 113.965 73.6133 114.317 74.8289 114.317C76.0445 114.317 77.2339 113.965 78.2531 113.302L103.385 96.9666C104.262 96.3962 104.983 95.6154 105.483 94.6954C105.982 93.7754 106.243 92.7452 106.243 91.6984V15Z" stroke="black" stroke-width="4" stroke-linejoin="round"/>
<path d="M62.2632 40.1316H74.829M62.2632 58.9803H87.3948" stroke="black" stroke-width="4" stroke-linecap="round" stroke-linejoin="round"/>
</svg>
