<svg width="33" height="32" viewBox="0 0 33 32" fill="none" xmlns="http://www.w3.org/2000/svg">
<path d="M27.3782 9.21875L25.658 25.9139C25.603 26.3853 25.3785 26.82 25.027 27.1354C24.6755 27.4508 24.2215 27.625 23.7512 27.625H9.88578C9.41543 27.625 8.96144 27.4508 8.60996 27.1354C8.25848 26.82 8.03395 26.3853 7.97898 25.9139L6.25818 9.21875" stroke="#232321" stroke-width="1.5" stroke-linecap="round" stroke-linejoin="round"/>
<path d="M29.2982 4.375H4.33817C3.80798 4.375 3.37817 4.80872 3.37817 5.34375V8.25C3.37817 8.78503 3.80798 9.21875 4.33817 9.21875H29.2982C29.8284 9.21875 30.2582 8.78503 30.2582 8.25V5.34375C30.2582 4.80872 29.8284 4.375 29.2982 4.375Z" stroke="#232321" stroke-width="1.5" stroke-linecap="round" stroke-linejoin="round"/>
<path d="M20.1782 15.0312L13.4582 21.8125M20.1782 21.8125L13.4582 15.0312" stroke="#232321" stroke-width="1.5" stroke-linecap="round" stroke-linejoin="round"/>
</svg>
