<svg width="17" height="16" viewBox="0 0 17 16" fill="none" xmlns="http://www.w3.org/2000/svg">
<path d="M7.83333 12C7.64444 12 7.48622 11.936 7.35867 11.808C7.23067 11.6804 7.16667 11.5222 7.16667 11.3333C7.16667 11.1444 7.23067 10.9862 7.35867 10.8587C7.48622 10.7307 7.64444 10.6667 7.83333 10.6667H9.16667C9.35556 10.6667 9.514 10.7307 9.642 10.8587C9.76956 10.9862 9.83333 11.1444 9.83333 11.3333C9.83333 11.5222 9.76956 11.6804 9.642 11.808C9.514 11.936 9.35556 12 9.16667 12H7.83333ZM3.16667 5.33333C2.97778 5.33333 2.81956 5.26956 2.692 5.142C2.564 5.014 2.5 4.85556 2.5 4.66667C2.5 4.47778 2.564 4.31933 2.692 4.19133C2.81956 4.06378 2.97778 4 3.16667 4H13.8333C14.0222 4 14.1804 4.06378 14.308 4.19133C14.436 4.31933 14.5 4.47778 14.5 4.66667C14.5 4.85556 14.436 5.014 14.308 5.142C14.1804 5.26956 14.0222 5.33333 13.8333 5.33333H3.16667ZM5.16667 8.66667C4.97778 8.66667 4.81933 8.60267 4.69133 8.47467C4.56378 8.34711 4.5 8.18889 4.5 8C4.5 7.81111 4.56378 7.65267 4.69133 7.52467C4.81933 7.39711 4.97778 7.33333 5.16667 7.33333H11.8333C12.0222 7.33333 12.1804 7.39711 12.308 7.52467C12.436 7.65267 12.5 7.81111 12.5 8C12.5 8.18889 12.436 8.34711 12.308 8.47467C12.1804 8.60267 12.0222 8.66667 11.8333 8.66667H5.16667Z" fill="black"/>
</svg>
