<svg width="24" height="24" viewBox="0 0 24 24" fill="none" xmlns="http://www.w3.org/2000/svg">
<path d="M11.169 20.7195L11.169 20.7195C7.48677 18.2199 5.89332 16.5067 5.015 15.4365C3.1429 13.1549 2.24773 10.814 2.27298 8.27977C2.30239 5.38068 4.62823 3.02344 7.45642 3.02344C9.51307 3.02344 10.9382 4.18181 11.7694 5.14856L11.7695 5.14865C11.7981 5.18158 11.8334 5.20799 11.8731 5.22608C11.9128 5.24418 11.9559 5.25355 11.9995 5.25355C12.0432 5.25355 12.0863 5.24418 12.126 5.22608C12.1656 5.20799 12.201 5.18158 12.2296 5.14865L12.2297 5.14855C13.0608 4.18088 14.486 3.02344 16.5427 3.02344C19.3709 3.02344 21.6967 5.38068 21.7261 8.28024C21.7514 10.815 20.8553 13.1558 18.9841 15.437C18.1058 16.5072 16.5123 18.2204 12.8301 20.72L12.8301 20.72C12.5853 20.8869 12.2959 20.9763 11.9995 20.9766C11.7032 20.9762 11.4138 20.8866 11.169 20.7195Z" fill="#DA1E28" stroke="#DA1E28" stroke-width="0.046875"/>
</svg>
