<svg width="24" height="24" viewBox="0 0 24 24" fill="none" xmlns="http://www.w3.org/2000/svg">
<path d="M11.625 3C6.86203 3 3 6.86203 3 11.625C3 16.388 6.86203 20.25 11.625 20.25C16.388 20.25 20.25 16.388 20.25 11.625C20.25 6.86203 16.388 3 11.625 3Z" stroke="#DA1E28" stroke-width="1.5" stroke-miterlimit="10"/>
<path d="M10.3125 10.3125H11.8125V15.75" stroke="#DA1E28" stroke-width="1.5" stroke-linecap="round" stroke-linejoin="round"/>
<path d="M9.75 15.9375H13.875" stroke="#DA1E28" stroke-width="1.5" stroke-miterlimit="10" stroke-linecap="round"/>
<path d="M10.9609 6.31863C11.1575 6.18729 11.3886 6.11719 11.625 6.11719C11.942 6.11719 12.246 6.24312 12.4702 6.46729C12.6944 6.69145 12.8203 6.99548 12.8203 7.3125C12.8203 7.54891 12.7502 7.78001 12.6189 7.97658C12.4875 8.17315 12.3008 8.32635 12.0824 8.41683C11.864 8.5073 11.6237 8.53097 11.3918 8.48484C11.1599 8.43872 10.947 8.32488 10.7798 8.15771C10.6126 7.99055 10.4988 7.77756 10.4527 7.54569C10.4065 7.31383 10.4302 7.07349 10.5207 6.85507C10.6111 6.63666 10.7644 6.44998 10.9609 6.31863Z" fill="#DA1E28" stroke="#232321" stroke-width="0.046875"/>
</svg>
