<svg width="24" height="24" viewBox="0 0 24 24" fill="none" xmlns="http://www.w3.org/2000/svg">
    <path
        d="M14.5617 17.7437C14.5384 17.721 14.5096 17.7047 14.4781 17.6965C14.4466 17.6883 14.4136 17.6884 14.3821 17.6968C13.5987 17.8985 12.793 18.0004 11.984 18.0001C10.0392 18.0001 8.16371 17.4245 6.40965 16.2892M14.5617 17.7437L14.5451 17.7603L14.5452 17.7604C14.5248 17.7405 14.4997 17.7263 14.4722 17.7192C14.4447 17.712 14.4157 17.7121 14.3882 17.7194L14.388 17.7195C13.6027 17.9217 12.7949 18.0239 11.984 18.0235C10.0343 18.0235 8.15447 17.4464 6.39691 16.3088M14.5617 17.7437L14.5453 17.7605L15.5567 18.7718L15.5567 18.7718C15.5652 18.7803 15.5713 18.7908 15.5746 18.8023C15.5779 18.8138 15.5782 18.8259 15.5755 18.8376C15.5728 18.8492 15.5672 18.86 15.5591 18.8688C15.5511 18.8777 15.5409 18.8844 15.5296 18.8882C14.3872 19.2742 13.1898 19.4729 11.9839 19.4767C9.75003 19.4766 7.60288 18.8219 5.60723 17.529L5.60722 17.529C3.83465 16.3821 2.24369 14.7529 1.00736 12.8181L1.00731 12.818C0.849106 12.5726 0.767442 12.2856 0.7727 11.9936C0.777958 11.7016 0.869899 11.4178 1.03684 11.1782C2.0216 9.7659 3.10447 8.55998 4.27084 7.57708L4.27086 7.57707C4.28436 7.56567 4.30166 7.55977 4.31932 7.56056C4.33697 7.56134 4.35369 7.56874 4.36613 7.58129L4.36621 7.58137L5.29985 8.5136C5.29986 8.51361 5.29988 8.51363 5.29989 8.51364C5.3067 8.52055 5.31202 8.5288 5.31549 8.53786C5.31897 8.54694 5.32052 8.55664 5.32006 8.56636C5.3196 8.57607 5.31713 8.58558 5.3128 8.59429C5.30848 8.60299 5.3024 8.6107 5.29496 8.61693M14.5617 17.7437L15.5732 18.7553C15.5845 18.7665 15.5928 18.7805 15.5972 18.7958C15.6015 18.8111 15.602 18.8273 15.5983 18.8429C15.5947 18.8584 15.5872 18.8728 15.5765 18.8846C15.5658 18.8964 15.5522 18.9053 15.5371 18.9104C14.3923 19.2972 13.1924 19.4963 11.984 19.5001C9.74527 19.5001 7.59371 18.8438 5.59449 17.5487L5.29496 8.61693M6.39691 16.3088C6.39692 16.3088 6.39692 16.3088 6.39693 16.3088L6.40965 16.2892M6.39691 16.3088L6.40965 16.2892M6.39691 16.3088C4.79678 15.2756 3.35683 13.796 2.23208 12.0362L2.22402 12.0235H2.2284V12.0198V12.0034L2.23261 12.0064C3.16833 10.6657 4.19346 9.53156 5.29496 8.61693M6.40965 16.2892C4.81261 15.2579 3.37496 13.7809 2.25183 12.0235M2.25183 12.0235L5.29493 8.61696C5.29494 8.61695 5.29495 8.61694 5.29496 8.61693M2.25183 12.0235V12.0198V12.0235ZM18.3548 6.47213L18.3421 6.49181C16.35 5.20403 14.1513 4.52354 11.9841 4.52353C10.7911 4.52565 9.60697 4.72851 8.48131 5.12362L8.48126 5.12364C8.46998 5.12756 8.45989 5.13429 8.45194 5.14319C8.44398 5.15209 8.43843 5.16286 8.43579 5.17451C8.43315 5.18615 8.43352 5.19827 8.43686 5.20973C8.4402 5.22118 8.44641 5.2316 8.45489 5.24L8.45497 5.24008L9.46498 6.2501C9.465 6.25012 9.46503 6.25014 9.46505 6.25016C9.48562 6.27036 9.51114 6.28478 9.53905 6.29197C9.56699 6.29917 9.59633 6.29888 9.62412 6.29111L9.62431 6.29106C10.3936 6.08295 11.187 5.97724 11.984 5.97666H11.984C13.8964 5.97666 15.7706 6.5609 17.5538 7.71479C19.1836 8.76661 20.6403 10.2445 21.7679 11.9868C21.768 11.987 21.7681 11.9872 21.7682 11.9874L21.7486 12.0001C21.7494 12.0012 21.7498 12.0025 21.7498 12.0038C21.7498 12.0052 21.7494 12.0065 21.7486 12.0076L18.3548 6.47213ZM18.3548 6.47213L18.3421 6.49181C20.1429 7.65474 21.7498 9.28168 22.9884 11.1972C23.1427 11.4362 23.2252 11.7145 23.226 11.999C23.2269 12.2835 23.146 12.5623 22.993 12.8022L22.993 12.8022C22.1152 14.183 21.0318 15.4218 19.7802 16.4756C19.7667 16.4868 19.7495 16.4925 19.7319 16.4917C19.7144 16.4908 19.6977 16.4834 19.6854 16.4709L19.6853 16.4709L18.7526 15.5386L18.3548 6.47213ZM19.7364 20.7637L19.7364 20.7637L3.23679 4.26411C3.23673 4.26404 3.23666 4.26396 3.23659 4.26389C3.10621 4.12655 3.03461 3.94373 3.03703 3.75437C3.03946 3.56491 3.1158 3.38389 3.24978 3.24991C3.38376 3.11594 3.56477 3.03959 3.75423 3.03717C3.9436 3.03474 4.12642 3.10635 4.26376 3.23673C4.26383 3.23679 4.2639 3.23686 4.26397 3.23693L20.7635 19.7365C20.8651 19.8381 20.9342 19.9675 20.9622 20.1084C20.9902 20.2493 20.9759 20.3954 20.9209 20.5281C20.8659 20.6608 20.7729 20.7743 20.6534 20.8541C20.534 20.9339 20.3936 20.9766 20.2499 20.9767C20.1545 20.9768 20.06 20.9581 19.9719 20.9215C19.8837 20.885 19.8037 20.8313 19.7364 20.7637ZM4.32035 7.53714C4.29682 7.5361 4.27375 7.54396 4.25574 7.55916L4.38277 7.56478C4.36618 7.54805 4.34389 7.53818 4.32035 7.53714ZM18.7579 15.4349C19.9337 14.4613 20.9495 13.3092 21.768 12.0206L18.7525 15.5385C18.7456 15.5316 18.7403 15.5233 18.7369 15.5142C18.7334 15.5051 18.7318 15.4954 18.7323 15.4856C18.7328 15.4758 18.7353 15.4663 18.7397 15.4576C18.7441 15.4488 18.7503 15.4411 18.7578 15.4349L18.7579 15.4349Z"
        fill="#79767C" stroke="#79767C" stroke-width="0.046875" />
    <path
        d="M12 7.52344H12C12.6724 7.52342 13.3362 7.6749 13.9421 7.96661C14.5479 8.25833 15.0803 8.68279 15.4996 9.20846C15.9189 9.73414 16.2145 10.3475 16.3642 11.0031C16.514 11.6586 16.5141 12.3395 16.3646 12.9951L16.3645 12.9955C16.3619 13.008 16.356 13.0195 16.3474 13.0289C16.3388 13.0382 16.3278 13.0451 16.3156 13.0487C16.3034 13.0523 16.2905 13.0525 16.2782 13.0494C16.2659 13.0462 16.2546 13.0397 16.2457 13.0307L16.2456 13.0306L10.9679 7.75436L10.9679 7.75428C10.9588 7.74533 10.9524 7.73411 10.9492 7.72179C10.946 7.70948 10.9463 7.69654 10.9499 7.68435C10.9535 7.67215 10.9603 7.66117 10.9697 7.65256C10.9791 7.64395 10.9906 7.63803 11.003 7.63545L11.003 7.63545L11.0035 7.63535C11.3304 7.5608 11.6646 7.52326 12 7.52344ZM7.75425 10.9693L7.75434 10.9694L13.0334 16.2484L13.0335 16.2485C13.0425 16.2575 13.049 16.2687 13.0521 16.281C13.0553 16.2933 13.0551 16.3063 13.0515 16.3185C13.0479 16.3307 13.041 16.3416 13.0317 16.3503C13.0223 16.3589 13.0108 16.3648 12.9983 16.3674L12.9979 16.3675C12.2591 16.5366 11.4894 16.5153 10.7611 16.3058C10.0327 16.0962 9.36953 15.7051 8.83362 15.1692C8.2977 14.6333 7.90662 13.97 7.69703 13.2417C7.48744 12.5133 7.46621 11.7437 7.63532 11.0049L7.63542 11.0045C7.638 10.992 7.64392 10.9805 7.65253 10.9711C7.66114 10.9618 7.67212 10.9549 7.68432 10.9513C7.69651 10.9477 7.70945 10.9475 7.72177 10.9506C7.73408 10.9538 7.74531 10.9603 7.75425 10.9693Z"
        fill="#79767C" stroke="#79767C" stroke-width="0.046875" />
</svg>
