<svg width="24" height="25" viewBox="0 0 24 25" fill="none" xmlns="http://www.w3.org/2000/svg">
<path d="M12 3.0791C8.27344 3.0791 5.25 5.95676 5.25 9.50098C5.25 13.5791 9.75 20.0418 11.4023 22.2739C11.4709 22.3682 11.5608 22.4448 11.6647 22.4977C11.7686 22.5506 11.8835 22.5781 12 22.5781C12.1165 22.5781 12.2314 22.5506 12.3353 22.4977C12.4392 22.4448 12.5291 22.3682 12.5977 22.2739C14.25 20.0427 18.75 13.5824 18.75 9.50098C18.75 5.95676 15.7266 3.0791 12 3.0791Z" stroke="#232321" stroke-width="1.5" stroke-linecap="round" stroke-linejoin="round"/>
<path d="M12 12.0791C13.2426 12.0791 14.25 11.0717 14.25 9.8291C14.25 8.58646 13.2426 7.5791 12 7.5791C10.7574 7.5791 9.75 8.58646 9.75 9.8291C9.75 11.0717 10.7574 12.0791 12 12.0791Z" stroke="#232321" stroke-width="1.5" stroke-linecap="round" stroke-linejoin="round"/>
</svg>
