<svg width="100" height="100" viewBox="0 0 100 100" fill="none" xmlns="http://www.w3.org/2000/svg">
<path d="M50 0C36.7422 0 24.0156 5.27109 14.6484 14.6445C5.27166 24.0217 0.00268319 36.7389 0 50C0 63.2555 5.27344 75.982 14.6484 85.3555C24.0156 94.7289 36.7422 100 50 100C63.2578 100 75.9844 94.7289 85.3516 85.3555C94.7266 75.982 100 63.2555 100 50C100 36.7445 94.7266 24.018 85.3516 14.6445C75.9844 5.27109 63.2578 0 50 0Z" fill="url(#paint0_linear_1179_4470)"/>
<path d="M22.633 49.471C37.2111 43.121 46.9299 38.9345 51.7893 36.9116C65.6799 31.1358 68.5627 30.1327 70.4455 30.0987C70.8596 30.092 71.7814 30.1944 72.383 30.6807C72.883 31.0909 73.0236 31.6456 73.0939 32.035C73.1564 32.4241 73.2424 33.3108 73.1721 34.003C72.4221 41.9092 69.1643 61.0952 67.508 69.9506C66.8127 73.6975 65.4299 74.9538 64.0939 75.0764C61.1877 75.3436 58.9846 73.1577 56.1721 71.3147C51.7736 68.4295 49.2893 66.6342 45.0158 63.8194C40.0783 60.5663 43.2814 58.778 46.0939 55.8561C46.8283 55.0913 59.6252 43.4545 59.8674 42.3991C59.8986 42.267 59.9299 41.7749 59.633 41.5155C59.3439 41.2553 58.9143 41.3444 58.6018 41.4147C58.1564 41.5147 51.133 46.1616 37.508 55.3545C35.5158 56.7249 33.7111 57.3928 32.0861 57.3577C30.3049 57.3194 26.8674 56.3483 24.3127 55.5186C21.1877 54.5006 18.6955 53.9624 18.9143 52.2335C19.0236 51.3335 20.2658 50.4124 22.633 49.471Z" fill="white"/>
<defs>
<linearGradient id="paint0_linear_1179_4470" x1="5000" y1="0" x2="5000" y2="10000" gradientUnits="userSpaceOnUse">
<stop stop-color="#2AABEE" offset="0"/>
<stop offset="1" stop-color="#229ED9"/>
</linearGradient>
</defs>
</svg>
