<svg width="32" height="32" viewBox="0 0 32 32" fill="none" xmlns="http://www.w3.org/2000/svg">
<rect width="32" height="32" fill="#FAFAFA"/>
<path d="M7.75027 26.4766L7.74996 26.4766C7.53748 26.4793 7.32705 26.4347 7.13398 26.3459C6.94092 26.2571 6.77008 26.1264 6.63388 25.9633L6.63387 25.9632C6.33401 25.6048 6.21259 25.1146 6.30239 24.6179L6.3024 24.6179C6.69683 22.4298 7.92767 20.5916 9.86327 19.3008C11.5832 18.1546 13.7625 17.5234 16.0003 17.5234C18.2381 17.5234 20.4174 18.1551 22.1373 19.3007C24.0729 20.5911 25.3037 22.4293 25.6981 24.6174C25.7879 25.1142 25.6665 25.6043 25.3667 25.9628L25.3666 25.9628C25.2305 26.126 25.0597 26.2568 24.8666 26.3457C24.6735 26.4346 24.4631 26.4793 24.2506 26.4766L24.2503 26.5V26.4766L7.75027 26.4766ZM16.0003 5.52344C17.4003 5.52344 18.668 6.0633 19.5756 7.04311C20.4943 8.03505 20.9424 9.37056 20.8364 10.8036C20.6257 13.659 18.4568 15.9766 16.0003 15.9766C13.5437 15.9766 11.3711 13.6585 11.1636 10.8027C11.0591 9.3564 11.5044 8.01811 12.4175 7.03375C13.3207 6.06009 14.5926 5.52344 16.0003 5.52344Z" fill="#232321" stroke="#232321" stroke-width="0.046875"/>
</svg>
