<svg width="32" height="32" viewBox="0 0 32 32" fill="none" xmlns="http://www.w3.org/2000/svg">
<rect width="32" height="32" fill="#FAFAFA"/>
<path d="M21.8109 19.8851L21.7987 19.9014L21.8131 19.9158L26.9582 25.0609C27.1868 25.3168 27.3088 25.6505 27.2992 25.9935C27.2895 26.3368 27.1489 26.6633 26.9061 26.9061C26.6633 27.1489 26.3368 27.2895 25.9935 27.2992C25.6505 27.3088 25.3168 27.1868 25.0609 26.9582L19.9158 21.8131L19.9014 21.7987L19.8851 21.8109C18.24 23.0467 16.2376 23.7138 14.18 23.7116C8.92435 23.7116 4.64844 19.4356 4.64844 14.18C4.64844 8.92435 8.92435 4.64844 14.18 4.64844C19.4356 4.64844 23.7116 8.92435 23.7116 14.18C23.7138 16.2376 23.0467 18.24 21.8109 19.8851ZM8.48573 10.3752C7.73322 11.5014 7.33156 12.8255 7.33156 14.18H7.3546L7.33156 14.18C7.33374 15.9957 8.05597 17.7363 9.33982 19.0202C10.6237 20.304 12.3643 21.0263 14.18 21.0284C15.5345 21.0284 16.8586 20.6268 17.9848 19.8743C19.111 19.1218 19.9888 18.0522 20.5071 16.8008C21.0255 15.5494 21.1611 14.1724 20.8968 12.8439C20.6326 11.5155 19.9803 10.2952 19.0226 9.33742C18.0648 8.37965 16.8445 7.7274 15.5161 7.46315C14.1876 7.1989 12.8106 7.33453 11.5592 7.85287C10.3078 8.37121 9.23825 9.24899 8.48573 10.3752Z" fill="#232321" stroke="#232321" stroke-width="0.046875"/>
</svg>
